PathFileType	4	(X/Y/Z)	D:\telocate\uwb02-Unnamed.trc
DataRate	CameraRate	NumFrames	NumMarkers	Units	OrigDataRate	OrigDataStartFrame	OrigNumFrames
100.00	100.00	      113	0	mm	100.00	1	      4547
Frame#	Time	
		

1	0.000	-1670.63574	2074.52051	1185.76697	
2	0.010	-1670.38611	2074.49121	1185.84412	
3	0.020	-1670.21252	2074.38379	1185.81262	
4	0.030	-1670.15442	2074.18774	1185.85999	
5	0.040	-1670.05396	2074.10889	1185.77527	
6	0.050	-1669.88684	2073.90527	1185.79004	
7	0.060	-1669.77344	2073.82153	1185.84204	
8	0.070	-1669.69043	2073.72534	1185.83936	
9	0.080	-1669.51660	2073.47510	1185.91382	
10	0.090	-1669.00708	2073.57690	1185.18225	
11	0.100	-1668.81433	2073.41992	1185.12195	
12	0.110	-1668.54578	2073.30029	1184.98450	
13	0.120	-1668.38647	2073.06201	1185.01697	
14	0.130	-1668.26721	2073.01709	1185.14038	
15	0.140	-1668.15454	2072.93726	1185.16638	
16	0.150	-1668.01672	2072.70142	1185.18823	
17	0.160	-1667.92017	2072.52856	1184.99780	
18	0.170	-1667.70544	2072.47485	1185.05420	
19	0.180	-1667.75781	2072.31250	1185.10120	
20	0.190	-1667.76794	2072.17236	1185.08533	
21	0.200	-1667.70642	2071.97388	1185.14038	
22	0.210	-1667.69336	2071.90967	1185.15564	
23	0.220	-1667.59509	2071.79175	1185.19128	
24	0.230	-1667.56628	2071.72998	1185.16846	
25	0.240	-1667.53845	2071.73096	1185.19543	
26	0.250	-1667.60059	2071.61768	1184.91138	
27	0.260	-1667.39160	2071.81396	1185.20935	
28	0.270	-1667.27039	2071.87207	1185.22485	
29	0.280	-1667.34509	2071.75732	1184.85889	
30	0.290	-1667.16956	2071.89063	1185.21106	
31	0.300	-1667.04639	2071.93384	1185.09778	
32	0.310	-1667.00757	2071.69971	1184.84363	
33	0.320	-1666.83630	2071.93604	1185.06421	
34	0.330	-1666.92725	2071.80835	1184.82373	
35	0.340	-1666.93530	2071.83105	1184.84106	
36	0.350	-1667.04614	2071.90820	1184.76587	
37	0.360	-1666.93115	2071.82397	1184.80981	
38	0.370	-1666.95874	2071.80908	1184.81555	
39	0.380	-1666.97424	2071.83008	1184.79346	
40	0.390	-1666.84729	2071.93652	1185.07019	
41	0.400	-1667.09277	2071.86353	1184.75183	
42	0.410	-1667.09375	2071.87329	1184.79077	
43	0.420	-1666.84436	2071.84497	1185.12659	
44	0.430	-1666.95850	2071.75562	1184.79016	
45	0.440	-1666.81677	2071.82910	1185.10254	
46	0.450	-1666.98572	2071.77563	1184.82849	
47	0.460	-1667.11426	2071.81470	1184.82227	
48	0.470	-1667.02551	2071.93213	1185.06299	
49	0.480	-1667.21362	2071.83301	1184.82324	
50	0.490	-1667.40088	2071.93774	1184.93018	
51	0.500	-1667.32800	2072.20386	1185.12317	
52	0.510	-1667.38647	2072.25098	1185.10071	
53	0.520	-1667.43481	2072.39233	1184.87964	
54	0.530	-1667.54504	2072.42139	1185.07458	
55	0.540	-1667.66199	2072.46704	1185.08203	
56	0.550	-1667.83777	2072.57593	1185.22583	
57	0.560	-1668.14600	2072.83862	1185.13245	
58	0.570	-1668.33008	2072.98120	1185.10559	
59	0.580	-1668.55273	2073.20972	1185.02979	
60	0.590	-1668.78027	2073.44214	1185.10474	
61	0.600	-1668.98425	2073.63501	1185.12830	
62	0.610	-1669.12634	2074.08350	1185.06580	
63	0.620	-1669.13196	2074.25171	1185.05994	
64	0.630	-1669.10840	2074.48779	1184.95679	
65	0.640	-1669.25110	2074.94653	1184.90979	
66	0.650	-1668.96484	2075.96899	1185.10449	
67	0.660	-1668.96423	2076.23657	1185.04126	
68	0.670	-1669.10010	2076.56543	1185.01563	
69	0.680	-1669.00977	2076.79102	1184.93726	
70	0.690	-1668.76624	2077.01514	1184.85205	
71	0.700	-1668.85291	2077.11035	1184.85876	
72	0.710	-1668.78552	2077.14502	1184.84839	
73	0.720	-1668.55688	2077.21216	1184.90259	
74	0.730	-1668.58325	2077.14600	1184.84741	
75	0.740	-1668.44556	2077.02661	1184.93262	
76	0.750	-1668.41028	2076.82886	1184.90137	
77	0.760	-1668.44653	2076.68652	1184.92969	
78	0.770	-1668.46118	2076.45581	1184.97839	
79	0.780	-1668.56409	2076.18970	1185.09338	
80	0.790	-1668.57178	2076.02148	1185.15076	
81	0.800	-1668.78430	2075.99023	1185.13867	
82	0.810	-1668.79346	2075.89453	1185.17749	
83	0.820	-1669.19666	2075.23950	1184.85205	
84	0.830	-1669.05859	2075.88062	1185.07239	
85	0.840	-1669.37183	2075.00610	1185.05310	
86	0.850	-1669.76233	2075.44556	1186.07092	
87	0.860	-1670.04810	2074.75269	1185.86182	
88	0.870	-1670.21582	2075.01367	1185.73279	
89	0.880	-1670.02051	2075.76831	1185.79443	
90	0.890	-1670.12561	2075.89526	1185.77368	
91	0.900	-1670.28442	2075.92578	1185.99475	
92	0.910	-1670.26221	2076.00415	1185.86475	
93	0.920	-1670.57642	2075.93286	1185.78284	
94	0.930	-1670.57764	2075.97461	1185.96863	
95	0.940	-1670.29846	2076.03931	1185.91687	
96	0.950	-1670.28845	2076.03638	1185.87085	
97	0.960	-1670.27393	2076.01367	1185.86560	
98	0.970	-1670.19580	2076.03198	1186.01782	
99	0.980	-1670.15588	2076.03589	1185.89722	
100	0.990	-1670.00171	2075.92603	1185.79395	
101	1.000	-1669.91418	2075.91895	1185.78027	
102	1.010	-1669.42480	2076.25415	1185.00024	
103	1.020	-1669.04053	2075.89063	1185.09973	
104	1.030	-1669.08118	2075.94287	1185.04871	
105	1.040	-1668.87158	2075.88647	1185.16174	
106	1.050	-1668.79749	2075.87720	1185.17871	
107	1.060	-1668.62292	2075.78711	1185.14905	
108	1.070	-1668.88574	2075.03003	1184.93542	
109	1.080	-1668.80396	2074.87964	1184.97839	
110	1.090	-1668.83447	2074.53516	1184.79443	
111	1.100	-1668.87476	2074.46118	1184.96570	
112	1.110	-1668.88428	2074.34253	1184.98840	
113	1.120	-1668.92920	2074.19751	1185.03015	
